<svg xmlns="http://www.w3.org/2000/svg" xmlns:xlink="http://www.w3.org/1999/xlink" width="600" height="400" viewBox="0 0 2400 1600">
<defs>
  <clipPath id="clip980">
    <rect x="0" y="0" width="2400" height="1600"></rect>
  </clipPath>
</defs>
<path clip-path="url(#clip980)" d="M0 1600 L2400 1600 L2400 0 L0 0  Z" fill="#ffffff" fill-rule="evenodd" fill-opacity="1"></path>
<defs>
  <clipPath id="clip981">
    <rect x="480" y="0" width="1681" height="1600"></rect>
  </clipPath>
</defs>
<path clip-path="url(#clip980)" d="M169.121 1486.45 L2352.76 1486.45 L2352.76 47.2441 L169.121 47.2441  Z" fill="#ffffff" fill-rule="evenodd" fill-opacity="1"></path>
<defs>
  <clipPath id="clip982">
    <rect x="169" y="47" width="2185" height="1440"></rect>
  </clipPath>
</defs>
<polyline clip-path="url(#clip982)" style="stroke:#000000; stroke-linecap:round; stroke-linejoin:round; stroke-width:2; stroke-opacity:0.1; fill:none" points="471.421,1486.45 471.421,47.2441 "></polyline>
<polyline clip-path="url(#clip982)" style="stroke:#000000; stroke-linecap:round; stroke-linejoin:round; stroke-width:2; stroke-opacity:0.1; fill:none" points="775.082,1486.45 775.082,47.2441 "></polyline>
<polyline clip-path="url(#clip982)" style="stroke:#000000; stroke-linecap:round; stroke-linejoin:round; stroke-width:2; stroke-opacity:0.1; fill:none" points="1078.74,1486.45 1078.74,47.2441 "></polyline>
<polyline clip-path="url(#clip982)" style="stroke:#000000; stroke-linecap:round; stroke-linejoin:round; stroke-width:2; stroke-opacity:0.1; fill:none" points="1382.4,1486.45 1382.4,47.2441 "></polyline>
<polyline clip-path="url(#clip982)" style="stroke:#000000; stroke-linecap:round; stroke-linejoin:round; stroke-width:2; stroke-opacity:0.1; fill:none" points="1686.06,1486.45 1686.06,47.2441 "></polyline>
<polyline clip-path="url(#clip982)" style="stroke:#000000; stroke-linecap:round; stroke-linejoin:round; stroke-width:2; stroke-opacity:0.1; fill:none" points="1989.72,1486.45 1989.72,47.2441 "></polyline>
<polyline clip-path="url(#clip982)" style="stroke:#000000; stroke-linecap:round; stroke-linejoin:round; stroke-width:2; stroke-opacity:0.1; fill:none" points="2293.38,1486.45 2293.38,47.2441 "></polyline>
<polyline clip-path="url(#clip980)" style="stroke:#000000; stroke-linecap:round; stroke-linejoin:round; stroke-width:4; stroke-opacity:1; fill:none" points="169.121,1486.45 2352.76,1486.45 "></polyline>
<polyline clip-path="url(#clip980)" style="stroke:#000000; stroke-linecap:round; stroke-linejoin:round; stroke-width:4; stroke-opacity:1; fill:none" points="471.421,1486.45 471.421,1467.55 "></polyline>
<polyline clip-path="url(#clip980)" style="stroke:#000000; stroke-linecap:round; stroke-linejoin:round; stroke-width:4; stroke-opacity:1; fill:none" points="775.082,1486.45 775.082,1467.55 "></polyline>
<polyline clip-path="url(#clip980)" style="stroke:#000000; stroke-linecap:round; stroke-linejoin:round; stroke-width:4; stroke-opacity:1; fill:none" points="1078.74,1486.45 1078.74,1467.55 "></polyline>
<polyline clip-path="url(#clip980)" style="stroke:#000000; stroke-linecap:round; stroke-linejoin:round; stroke-width:4; stroke-opacity:1; fill:none" points="1382.4,1486.45 1382.4,1467.55 "></polyline>
<polyline clip-path="url(#clip980)" style="stroke:#000000; stroke-linecap:round; stroke-linejoin:round; stroke-width:4; stroke-opacity:1; fill:none" points="1686.06,1486.45 1686.06,1467.55 "></polyline>
<polyline clip-path="url(#clip980)" style="stroke:#000000; stroke-linecap:round; stroke-linejoin:round; stroke-width:4; stroke-opacity:1; fill:none" points="1989.72,1486.45 1989.72,1467.55 "></polyline>
<polyline clip-path="url(#clip980)" style="stroke:#000000; stroke-linecap:round; stroke-linejoin:round; stroke-width:4; stroke-opacity:1; fill:none" points="2293.38,1486.45 2293.38,1467.55 "></polyline>
<path clip-path="url(#clip980)" d="M419.142 1517.37 Q415.53 1517.37 413.702 1520.93 Q411.896 1524.47 411.896 1531.6 Q411.896 1538.71 413.702 1542.27 Q415.53 1545.82 419.142 1545.82 Q422.776 1545.82 424.581 1542.27 Q426.41 1538.71 426.41 1531.6 Q426.41 1524.47 424.581 1520.93 Q422.776 1517.37 419.142 1517.37 M419.142 1513.66 Q424.952 1513.66 428.007 1518.27 Q431.086 1522.85 431.086 1531.6 Q431.086 1540.33 428.007 1544.94 Q424.952 1549.52 419.142 1549.52 Q413.331 1549.52 410.253 1544.94 Q407.197 1540.33 407.197 1531.6 Q407.197 1522.85 410.253 1518.27 Q413.331 1513.66 419.142 1513.66 Z" fill="#000000" fill-rule="nonzero" fill-opacity="1"></path><path clip-path="url(#clip980)" d="M439.304 1542.97 L444.188 1542.97 L444.188 1548.85 L439.304 1548.85 L439.304 1542.97 Z" fill="#000000" fill-rule="nonzero" fill-opacity="1"></path><path clip-path="url(#clip980)" d="M464.373 1517.37 Q460.762 1517.37 458.933 1520.93 Q457.127 1524.47 457.127 1531.6 Q457.127 1538.71 458.933 1542.27 Q460.762 1545.82 464.373 1545.82 Q468.007 1545.82 469.813 1542.27 Q471.641 1538.71 471.641 1531.6 Q471.641 1524.47 469.813 1520.93 Q468.007 1517.37 464.373 1517.37 M464.373 1513.66 Q470.183 1513.66 473.239 1518.27 Q476.317 1522.85 476.317 1531.6 Q476.317 1540.33 473.239 1544.94 Q470.183 1549.52 464.373 1549.52 Q458.563 1549.52 455.484 1544.94 Q452.428 1540.33 452.428 1531.6 Q452.428 1522.85 455.484 1518.27 Q458.563 1513.66 464.373 1513.66 Z" fill="#000000" fill-rule="nonzero" fill-opacity="1"></path><path clip-path="url(#clip980)" d="M494.535 1517.37 Q490.924 1517.37 489.095 1520.93 Q487.289 1524.47 487.289 1531.6 Q487.289 1538.71 489.095 1542.27 Q490.924 1545.82 494.535 1545.82 Q498.169 1545.82 499.974 1542.27 Q501.803 1538.71 501.803 1531.6 Q501.803 1524.47 499.974 1520.93 Q498.169 1517.37 494.535 1517.37 M494.535 1513.66 Q500.345 1513.66 503.4 1518.27 Q506.479 1522.85 506.479 1531.6 Q506.479 1540.33 503.4 1544.94 Q500.345 1549.52 494.535 1549.52 Q488.725 1549.52 485.646 1544.94 Q482.59 1540.33 482.59 1531.6 Q482.59 1522.85 485.646 1518.27 Q488.725 1513.66 494.535 1513.66 Z" fill="#000000" fill-rule="nonzero" fill-opacity="1"></path><path clip-path="url(#clip980)" d="M514.743 1514.29 L533.099 1514.29 L533.099 1518.22 L519.025 1518.22 L519.025 1526.7 Q520.044 1526.35 521.062 1526.19 Q522.081 1526 523.099 1526 Q528.886 1526 532.266 1529.17 Q535.646 1532.34 535.646 1537.76 Q535.646 1543.34 532.173 1546.44 Q528.701 1549.52 522.382 1549.52 Q520.206 1549.52 517.937 1549.15 Q515.692 1548.78 513.285 1548.04 L513.285 1543.34 Q515.368 1544.47 517.59 1545.03 Q519.812 1545.58 522.289 1545.58 Q526.294 1545.58 528.632 1543.48 Q530.97 1541.37 530.97 1537.76 Q530.97 1534.15 528.632 1532.04 Q526.294 1529.94 522.289 1529.94 Q520.414 1529.94 518.539 1530.35 Q516.687 1530.77 514.743 1531.65 L514.743 1514.29 Z" fill="#000000" fill-rule="nonzero" fill-opacity="1"></path><path clip-path="url(#clip980)" d="M722.304 1517.37 Q718.693 1517.37 716.865 1520.93 Q715.059 1524.47 715.059 1531.6 Q715.059 1538.71 716.865 1542.27 Q718.693 1545.82 722.304 1545.82 Q725.939 1545.82 727.744 1542.27 Q729.573 1538.71 729.573 1531.6 Q729.573 1524.47 727.744 1520.93 Q725.939 1517.37 722.304 1517.37 M722.304 1513.66 Q728.115 1513.66 731.17 1518.27 Q734.249 1522.85 734.249 1531.6 Q734.249 1540.33 731.17 1544.94 Q728.115 1549.52 722.304 1549.52 Q716.494 1549.52 713.416 1544.94 Q710.36 1540.33 710.36 1531.6 Q710.36 1522.85 713.416 1518.27 Q716.494 1513.66 722.304 1513.66 Z" fill="#000000" fill-rule="nonzero" fill-opacity="1"></path><path clip-path="url(#clip980)" d="M742.466 1542.97 L747.351 1542.97 L747.351 1548.85 L742.466 1548.85 L742.466 1542.97 Z" fill="#000000" fill-rule="nonzero" fill-opacity="1"></path><path clip-path="url(#clip980)" d="M767.536 1517.37 Q763.925 1517.37 762.096 1520.93 Q760.29 1524.47 760.29 1531.6 Q760.29 1538.71 762.096 1542.27 Q763.925 1545.82 767.536 1545.82 Q771.17 1545.82 772.975 1542.27 Q774.804 1538.71 774.804 1531.6 Q774.804 1524.47 772.975 1520.93 Q771.17 1517.37 767.536 1517.37 M767.536 1513.66 Q773.346 1513.66 776.401 1518.27 Q779.48 1522.85 779.48 1531.6 Q779.48 1540.33 776.401 1544.94 Q773.346 1549.52 767.536 1549.52 Q761.725 1549.52 758.647 1544.94 Q755.591 1540.33 755.591 1531.6 Q755.591 1522.85 758.647 1518.27 Q761.725 1513.66 767.536 1513.66 Z" fill="#000000" fill-rule="nonzero" fill-opacity="1"></path><path clip-path="url(#clip980)" d="M788.508 1544.91 L796.147 1544.91 L796.147 1518.55 L787.836 1520.21 L787.836 1515.95 L796.1 1514.29 L800.776 1514.29 L800.776 1544.91 L808.415 1544.91 L808.415 1548.85 L788.508 1548.85 L788.508 1544.91 Z" fill="#000000" fill-rule="nonzero" fill-opacity="1"></path><path clip-path="url(#clip980)" d="M827.859 1517.37 Q824.248 1517.37 822.42 1520.93 Q820.614 1524.47 820.614 1531.6 Q820.614 1538.71 822.42 1542.27 Q824.248 1545.82 827.859 1545.82 Q831.494 1545.82 833.299 1542.27 Q835.128 1538.71 835.128 1531.6 Q835.128 1524.47 833.299 1520.93 Q831.494 1517.37 827.859 1517.37 M827.859 1513.66 Q833.67 1513.66 836.725 1518.27 Q839.804 1522.85 839.804 1531.6 Q839.804 1540.33 836.725 1544.94 Q833.67 1549.52 827.859 1549.52 Q822.049 1549.52 818.971 1544.94 Q815.915 1540.33 815.915 1531.6 Q815.915 1522.85 818.971 1518.27 Q822.049 1513.66 827.859 1513.66 Z" fill="#000000" fill-rule="nonzero" fill-opacity="1"></path><path clip-path="url(#clip980)" d="M1026.46 1517.37 Q1022.85 1517.37 1021.02 1520.93 Q1019.22 1524.47 1019.22 1531.6 Q1019.22 1538.71 1021.02 1542.27 Q1022.85 1545.82 1026.46 1545.82 Q1030.1 1545.82 1031.9 1542.27 Q1033.73 1538.71 1033.73 1531.6 Q1033.73 1524.47 1031.9 1520.93 Q1030.1 1517.37 1026.46 1517.37 M1026.46 1513.66 Q1032.27 1513.66 1035.33 1518.27 Q1038.41 1522.85 1038.41 1531.6 Q1038.41 1540.33 1035.33 1544.94 Q1032.27 1549.52 1026.46 1549.52 Q1020.65 1549.52 1017.57 1544.94 Q1014.52 1540.33 1014.52 1531.6 Q1014.52 1522.85 1017.57 1518.27 Q1020.65 1513.66 1026.46 1513.66 Z" fill="#000000" fill-rule="nonzero" fill-opacity="1"></path><path clip-path="url(#clip980)" d="M1046.62 1542.97 L1051.51 1542.97 L1051.51 1548.85 L1046.62 1548.85 L1046.62 1542.97 Z" fill="#000000" fill-rule="nonzero" fill-opacity="1"></path><path clip-path="url(#clip980)" d="M1071.69 1517.37 Q1068.08 1517.37 1066.25 1520.93 Q1064.45 1524.47 1064.45 1531.6 Q1064.45 1538.71 1066.25 1542.27 Q1068.08 1545.82 1071.69 1545.82 Q1075.33 1545.82 1077.13 1542.27 Q1078.96 1538.71 1078.96 1531.6 Q1078.96 1524.47 1077.13 1520.93 Q1075.33 1517.37 1071.69 1517.37 M1071.69 1513.66 Q1077.5 1513.66 1080.56 1518.27 Q1083.64 1522.85 1083.64 1531.6 Q1083.64 1540.33 1080.56 1544.94 Q1077.5 1549.52 1071.69 1549.52 Q1065.88 1549.52 1062.8 1544.94 Q1059.75 1540.33 1059.75 1531.6 Q1059.75 1522.85 1062.8 1518.27 Q1065.88 1513.66 1071.69 1513.66 Z" fill="#000000" fill-rule="nonzero" fill-opacity="1"></path><path clip-path="url(#clip980)" d="M1092.67 1544.91 L1100.3 1544.91 L1100.3 1518.55 L1091.99 1520.21 L1091.99 1515.95 L1100.26 1514.29 L1104.93 1514.29 L1104.93 1544.91 L1112.57 1544.91 L1112.57 1548.85 L1092.67 1548.85 L1092.67 1544.91 Z" fill="#000000" fill-rule="nonzero" fill-opacity="1"></path><path clip-path="url(#clip980)" d="M1122.06 1514.29 L1140.42 1514.29 L1140.42 1518.22 L1126.35 1518.22 L1126.35 1526.7 Q1127.36 1526.35 1128.38 1526.19 Q1129.4 1526 1130.42 1526 Q1136.21 1526 1139.59 1529.17 Q1142.97 1532.34 1142.97 1537.76 Q1142.97 1543.34 1139.49 1546.44 Q1136.02 1549.52 1129.7 1549.52 Q1127.53 1549.52 1125.26 1549.15 Q1123.01 1548.78 1120.61 1548.04 L1120.61 1543.34 Q1122.69 1544.47 1124.91 1545.03 Q1127.13 1545.58 1129.61 1545.58 Q1133.61 1545.58 1135.95 1543.48 Q1138.29 1541.37 1138.29 1537.76 Q1138.29 1534.15 1135.95 1532.04 Q1133.61 1529.94 1129.61 1529.94 Q1127.74 1529.94 1125.86 1530.35 Q1124.01 1530.77 1122.06 1531.65 L1122.06 1514.29 Z" fill="#000000" fill-rule="nonzero" fill-opacity="1"></path><path clip-path="url(#clip980)" d="M1329.63 1517.37 Q1326.01 1517.37 1324.19 1520.93 Q1322.38 1524.47 1322.38 1531.6 Q1322.38 1538.71 1324.19 1542.27 Q1326.01 1545.82 1329.63 1545.82 Q1333.26 1545.82 1335.07 1542.27 Q1336.89 1538.71 1336.89 1531.6 Q1336.89 1524.47 1335.07 1520.93 Q1333.26 1517.37 1329.63 1517.37 M1329.63 1513.66 Q1335.44 1513.66 1338.49 1518.27 Q1341.57 1522.85 1341.57 1531.6 Q1341.57 1540.33 1338.49 1544.94 Q1335.44 1549.52 1329.63 1549.52 Q1323.82 1549.52 1320.74 1544.94 Q1317.68 1540.33 1317.68 1531.6 Q1317.68 1522.85 1320.74 1518.27 Q1323.82 1513.66 1329.63 1513.66 Z" fill="#000000" fill-rule="nonzero" fill-opacity="1"></path><path clip-path="url(#clip980)" d="M1349.79 1542.97 L1354.67 1542.97 L1354.67 1548.85 L1349.79 1548.85 L1349.79 1542.97 Z" fill="#000000" fill-rule="nonzero" fill-opacity="1"></path><path clip-path="url(#clip980)" d="M1374.86 1517.37 Q1371.25 1517.37 1369.42 1520.93 Q1367.61 1524.47 1367.61 1531.6 Q1367.61 1538.71 1369.42 1542.27 Q1371.25 1545.82 1374.86 1545.82 Q1378.49 1545.82 1380.3 1542.27 Q1382.13 1538.71 1382.13 1531.6 Q1382.13 1524.47 1380.3 1520.93 Q1378.49 1517.37 1374.86 1517.37 M1374.86 1513.66 Q1380.67 1513.66 1383.72 1518.27 Q1386.8 1522.85 1386.8 1531.6 Q1386.8 1540.33 1383.72 1544.94 Q1380.67 1549.52 1374.86 1549.52 Q1369.05 1549.52 1365.97 1544.94 Q1362.91 1540.33 1362.91 1531.6 Q1362.91 1522.85 1365.97 1518.27 Q1369.05 1513.66 1374.86 1513.66 Z" fill="#000000" fill-rule="nonzero" fill-opacity="1"></path><path clip-path="url(#clip980)" d="M1399.05 1544.91 L1415.37 1544.91 L1415.37 1548.85 L1393.42 1548.85 L1393.42 1544.91 Q1396.08 1542.16 1400.67 1537.53 Q1405.27 1532.88 1406.45 1531.53 Q1408.7 1529.01 1409.58 1527.27 Q1410.48 1525.51 1410.48 1523.82 Q1410.48 1521.07 1408.54 1519.33 Q1406.62 1517.6 1403.51 1517.6 Q1401.31 1517.6 1398.86 1518.36 Q1396.43 1519.13 1393.65 1520.68 L1393.65 1515.95 Q1396.48 1514.82 1398.93 1514.24 Q1401.38 1513.66 1403.42 1513.66 Q1408.79 1513.66 1411.99 1516.35 Q1415.18 1519.03 1415.18 1523.52 Q1415.18 1525.65 1414.37 1527.57 Q1413.58 1529.47 1411.48 1532.07 Q1410.9 1532.74 1407.8 1535.95 Q1404.69 1539.15 1399.05 1544.91 Z" fill="#000000" fill-rule="nonzero" fill-opacity="1"></path><path clip-path="url(#clip980)" d="M1435.18 1517.37 Q1431.57 1517.37 1429.74 1520.93 Q1427.93 1524.47 1427.93 1531.6 Q1427.93 1538.71 1429.74 1542.27 Q1431.57 1545.82 1435.18 1545.82 Q1438.81 1545.82 1440.62 1542.27 Q1442.45 1538.71 1442.45 1531.6 Q1442.45 1524.47 1440.62 1520.93 Q1438.81 1517.37 1435.18 1517.37 M1435.18 1513.66 Q1440.99 1513.66 1444.05 1518.27 Q1447.12 1522.85 1447.12 1531.6 Q1447.12 1540.33 1444.05 1544.94 Q1440.99 1549.52 1435.18 1549.52 Q1429.37 1549.52 1426.29 1544.94 Q1423.24 1540.33 1423.24 1531.6 Q1423.24 1522.85 1426.29 1518.27 Q1429.37 1513.66 1435.18 1513.66 Z" fill="#000000" fill-rule="nonzero" fill-opacity="1"></path><path clip-path="url(#clip980)" d="M1633.78 1517.37 Q1630.17 1517.37 1628.34 1520.93 Q1626.54 1524.47 1626.54 1531.6 Q1626.54 1538.71 1628.34 1542.27 Q1630.17 1545.82 1633.78 1545.82 Q1637.42 1545.82 1639.22 1542.27 Q1641.05 1538.71 1641.05 1531.6 Q1641.05 1524.47 1639.22 1520.93 Q1637.42 1517.37 1633.78 1517.37 M1633.78 1513.66 Q1639.59 1513.66 1642.65 1518.27 Q1645.73 1522.85 1645.73 1531.6 Q1645.73 1540.33 1642.65 1544.94 Q1639.59 1549.52 1633.78 1549.52 Q1627.97 1549.52 1624.89 1544.94 Q1621.84 1540.33 1621.84 1531.6 Q1621.84 1522.85 1624.89 1518.27 Q1627.97 1513.66 1633.78 1513.66 Z" fill="#000000" fill-rule="nonzero" fill-opacity="1"></path><path clip-path="url(#clip980)" d="M1653.95 1542.97 L1658.83 1542.97 L1658.83 1548.85 L1653.95 1548.85 L1653.95 1542.97 Z" fill="#000000" fill-rule="nonzero" fill-opacity="1"></path><path clip-path="url(#clip980)" d="M1679.01 1517.37 Q1675.4 1517.37 1673.57 1520.93 Q1671.77 1524.47 1671.77 1531.6 Q1671.77 1538.71 1673.57 1542.27 Q1675.4 1545.82 1679.01 1545.82 Q1682.65 1545.82 1684.45 1542.27 Q1686.28 1538.71 1686.28 1531.6 Q1686.28 1524.47 1684.45 1520.93 Q1682.65 1517.37 1679.01 1517.37 M1679.01 1513.66 Q1684.82 1513.66 1687.88 1518.27 Q1690.96 1522.85 1690.96 1531.6 Q1690.96 1540.33 1687.88 1544.94 Q1684.82 1549.52 1679.01 1549.52 Q1673.2 1549.52 1670.13 1544.94 Q1667.07 1540.33 1667.07 1531.6 Q1667.07 1522.85 1670.13 1518.27 Q1673.2 1513.66 1679.01 1513.66 Z" fill="#000000" fill-rule="nonzero" fill-opacity="1"></path><path clip-path="url(#clip980)" d="M1703.2 1544.91 L1719.52 1544.91 L1719.52 1548.85 L1697.58 1548.85 L1697.58 1544.91 Q1700.24 1542.16 1704.82 1537.53 Q1709.43 1532.88 1710.61 1531.53 Q1712.86 1529.01 1713.74 1527.27 Q1714.64 1525.51 1714.64 1523.82 Q1714.64 1521.07 1712.7 1519.33 Q1710.77 1517.6 1707.67 1517.6 Q1705.47 1517.6 1703.02 1518.36 Q1700.59 1519.13 1697.81 1520.68 L1697.81 1515.95 Q1700.63 1514.82 1703.09 1514.24 Q1705.54 1513.66 1707.58 1513.66 Q1712.95 1513.66 1716.14 1516.35 Q1719.34 1519.03 1719.34 1523.52 Q1719.34 1525.65 1718.53 1527.57 Q1717.74 1529.47 1715.63 1532.07 Q1715.06 1532.74 1711.95 1535.95 Q1708.85 1539.15 1703.2 1544.91 Z" fill="#000000" fill-rule="nonzero" fill-opacity="1"></path><path clip-path="url(#clip980)" d="M1729.38 1514.29 L1747.74 1514.29 L1747.74 1518.22 L1733.67 1518.22 L1733.67 1526.7 Q1734.69 1526.35 1735.7 1526.19 Q1736.72 1526 1737.74 1526 Q1743.53 1526 1746.91 1529.17 Q1750.29 1532.34 1750.29 1537.76 Q1750.29 1543.34 1746.82 1546.44 Q1743.34 1549.52 1737.02 1549.52 Q1734.85 1549.52 1732.58 1549.15 Q1730.33 1548.78 1727.93 1548.04 L1727.93 1543.34 Q1730.01 1544.47 1732.23 1545.03 Q1734.45 1545.58 1736.93 1545.58 Q1740.94 1545.58 1743.27 1543.48 Q1745.61 1541.37 1745.61 1537.76 Q1745.61 1534.15 1743.27 1532.04 Q1740.94 1529.94 1736.93 1529.94 Q1735.06 1529.94 1733.18 1530.35 Q1731.33 1530.77 1729.38 1531.65 L1729.38 1514.29 Z" fill="#000000" fill-rule="nonzero" fill-opacity="1"></path><path clip-path="url(#clip980)" d="M1936.95 1517.37 Q1933.34 1517.37 1931.51 1520.93 Q1929.7 1524.47 1929.7 1531.6 Q1929.7 1538.71 1931.51 1542.27 Q1933.34 1545.82 1936.95 1545.82 Q1940.58 1545.82 1942.39 1542.27 Q1944.21 1538.71 1944.21 1531.6 Q1944.21 1524.47 1942.39 1520.93 Q1940.58 1517.37 1936.95 1517.37 M1936.95 1513.66 Q1942.76 1513.66 1945.81 1518.27 Q1948.89 1522.85 1948.89 1531.6 Q1948.89 1540.33 1945.81 1544.94 Q1942.76 1549.52 1936.95 1549.52 Q1931.14 1549.52 1928.06 1544.94 Q1925 1540.33 1925 1531.6 Q1925 1522.85 1928.06 1518.27 Q1931.14 1513.66 1936.95 1513.66 Z" fill="#000000" fill-rule="nonzero" fill-opacity="1"></path><path clip-path="url(#clip980)" d="M1957.11 1542.97 L1961.99 1542.97 L1961.99 1548.85 L1957.11 1548.85 L1957.11 1542.97 Z" fill="#000000" fill-rule="nonzero" fill-opacity="1"></path><path clip-path="url(#clip980)" d="M1982.18 1517.37 Q1978.57 1517.37 1976.74 1520.93 Q1974.93 1524.47 1974.93 1531.6 Q1974.93 1538.71 1976.74 1542.27 Q1978.57 1545.82 1982.18 1545.82 Q1985.81 1545.82 1987.62 1542.27 Q1989.45 1538.71 1989.45 1531.6 Q1989.45 1524.47 1987.62 1520.93 Q1985.81 1517.37 1982.18 1517.37 M1982.18 1513.66 Q1987.99 1513.66 1991.04 1518.27 Q1994.12 1522.85 1994.12 1531.6 Q1994.12 1540.33 1991.04 1544.94 Q1987.99 1549.52 1982.18 1549.52 Q1976.37 1549.52 1973.29 1544.94 Q1970.23 1540.33 1970.23 1531.6 Q1970.23 1522.85 1973.29 1518.27 Q1976.37 1513.66 1982.18 1513.66 Z" fill="#000000" fill-rule="nonzero" fill-opacity="1"></path><path clip-path="url(#clip980)" d="M2016.51 1530.21 Q2019.86 1530.93 2021.74 1533.2 Q2023.64 1535.47 2023.64 1538.8 Q2023.64 1543.92 2020.12 1546.72 Q2016.6 1549.52 2010.12 1549.52 Q2007.94 1549.52 2005.63 1549.08 Q2003.33 1548.66 2000.88 1547.81 L2000.88 1543.29 Q2002.83 1544.43 2005.14 1545.01 Q2007.46 1545.58 2009.98 1545.58 Q2014.38 1545.58 2016.67 1543.85 Q2018.98 1542.11 2018.98 1538.8 Q2018.98 1535.75 2016.83 1534.03 Q2014.7 1532.3 2010.88 1532.3 L2006.85 1532.3 L2006.85 1528.45 L2011.07 1528.45 Q2014.52 1528.45 2016.34 1527.09 Q2018.17 1525.7 2018.17 1523.11 Q2018.17 1520.45 2016.27 1519.03 Q2014.4 1517.6 2010.88 1517.6 Q2008.96 1517.6 2006.76 1518.01 Q2004.56 1518.43 2001.92 1519.31 L2001.92 1515.14 Q2004.58 1514.4 2006.9 1514.03 Q2009.24 1513.66 2011.3 1513.66 Q2016.62 1513.66 2019.72 1516.09 Q2022.83 1518.5 2022.83 1522.62 Q2022.83 1525.49 2021.18 1527.48 Q2019.54 1529.45 2016.51 1530.21 Z" fill="#000000" fill-rule="nonzero" fill-opacity="1"></path><path clip-path="url(#clip980)" d="M2042.5 1517.37 Q2038.89 1517.37 2037.06 1520.93 Q2035.26 1524.47 2035.26 1531.6 Q2035.26 1538.71 2037.06 1542.27 Q2038.89 1545.82 2042.5 1545.82 Q2046.14 1545.82 2047.94 1542.27 Q2049.77 1538.71 2049.77 1531.6 Q2049.77 1524.47 2047.94 1520.93 Q2046.14 1517.37 2042.5 1517.37 M2042.5 1513.66 Q2048.31 1513.66 2051.37 1518.27 Q2054.45 1522.85 2054.45 1531.6 Q2054.45 1540.33 2051.37 1544.94 Q2048.31 1549.52 2042.5 1549.52 Q2036.69 1549.52 2033.61 1544.94 Q2030.56 1540.33 2030.56 1531.6 Q2030.56 1522.85 2033.61 1518.27 Q2036.69 1513.66 2042.5 1513.66 Z" fill="#000000" fill-rule="nonzero" fill-opacity="1"></path><path clip-path="url(#clip980)" d="M2241.1 1517.37 Q2237.49 1517.37 2235.66 1520.93 Q2233.86 1524.47 2233.86 1531.6 Q2233.86 1538.71 2235.66 1542.27 Q2237.49 1545.82 2241.1 1545.82 Q2244.74 1545.82 2246.54 1542.27 Q2248.37 1538.71 2248.37 1531.6 Q2248.37 1524.47 2246.54 1520.93 Q2244.74 1517.37 2241.1 1517.37 M2241.1 1513.66 Q2246.91 1513.66 2249.97 1518.27 Q2253.05 1522.85 2253.05 1531.6 Q2253.05 1540.33 2249.97 1544.94 Q2246.91 1549.52 2241.1 1549.52 Q2235.29 1549.52 2232.22 1544.94 Q2229.16 1540.33 2229.16 1531.6 Q2229.16 1522.85 2232.22 1518.27 Q2235.29 1513.66 2241.1 1513.66 Z" fill="#000000" fill-rule="nonzero" fill-opacity="1"></path><path clip-path="url(#clip980)" d="M2261.27 1542.97 L2266.15 1542.97 L2266.15 1548.85 L2261.27 1548.85 L2261.27 1542.97 Z" fill="#000000" fill-rule="nonzero" fill-opacity="1"></path><path clip-path="url(#clip980)" d="M2286.34 1517.37 Q2282.72 1517.37 2280.9 1520.93 Q2279.09 1524.47 2279.09 1531.6 Q2279.09 1538.71 2280.9 1542.27 Q2282.72 1545.82 2286.34 1545.82 Q2289.97 1545.82 2291.78 1542.27 Q2293.6 1538.71 2293.6 1531.6 Q2293.6 1524.47 2291.78 1520.93 Q2289.97 1517.37 2286.34 1517.37 M2286.34 1513.66 Q2292.15 1513.66 2295.2 1518.27 Q2298.28 1522.85 2298.28 1531.6 Q2298.28 1540.33 2295.2 1544.94 Q2292.15 1549.52 2286.34 1549.52 Q2280.53 1549.52 2277.45 1544.94 Q2274.39 1540.33 2274.39 1531.6 Q2274.39 1522.85 2277.45 1518.27 Q2280.53 1513.66 2286.34 1513.66 Z" fill="#000000" fill-rule="nonzero" fill-opacity="1"></path><path clip-path="url(#clip980)" d="M2320.66 1530.21 Q2324.02 1530.93 2325.9 1533.2 Q2327.79 1535.47 2327.79 1538.8 Q2327.79 1543.92 2324.28 1546.72 Q2320.76 1549.52 2314.28 1549.52 Q2312.1 1549.52 2309.78 1549.08 Q2307.49 1548.66 2305.04 1547.81 L2305.04 1543.29 Q2306.98 1544.43 2309.3 1545.01 Q2311.61 1545.58 2314.14 1545.58 Q2318.53 1545.58 2320.83 1543.85 Q2323.14 1542.11 2323.14 1538.8 Q2323.14 1535.75 2320.99 1534.03 Q2318.86 1532.3 2315.04 1532.3 L2311.01 1532.3 L2311.01 1528.45 L2315.22 1528.45 Q2318.67 1528.45 2320.5 1527.09 Q2322.33 1525.7 2322.33 1523.11 Q2322.33 1520.45 2320.43 1519.03 Q2318.56 1517.6 2315.04 1517.6 Q2313.12 1517.6 2310.92 1518.01 Q2308.72 1518.43 2306.08 1519.31 L2306.08 1515.14 Q2308.74 1514.4 2311.06 1514.03 Q2313.4 1513.66 2315.46 1513.66 Q2320.78 1513.66 2323.88 1516.09 Q2326.98 1518.5 2326.98 1522.62 Q2326.98 1525.49 2325.34 1527.48 Q2323.7 1529.45 2320.66 1530.21 Z" fill="#000000" fill-rule="nonzero" fill-opacity="1"></path><path clip-path="url(#clip980)" d="M2336.71 1514.29 L2355.06 1514.29 L2355.06 1518.22 L2340.99 1518.22 L2340.99 1526.7 Q2342.01 1526.35 2343.03 1526.19 Q2344.04 1526 2345.06 1526 Q2350.85 1526 2354.23 1529.17 Q2357.61 1532.34 2357.61 1537.76 Q2357.61 1543.34 2354.14 1546.44 Q2350.66 1549.52 2344.34 1549.52 Q2342.17 1549.52 2339.9 1549.15 Q2337.65 1548.78 2335.25 1548.04 L2335.25 1543.34 Q2337.33 1544.47 2339.55 1545.03 Q2341.78 1545.58 2344.25 1545.58 Q2348.26 1545.58 2350.59 1543.48 Q2352.93 1541.37 2352.93 1537.76 Q2352.93 1534.15 2350.59 1532.04 Q2348.26 1529.94 2344.25 1529.94 Q2342.38 1529.94 2340.5 1530.35 Q2338.65 1530.77 2336.71 1531.65 L2336.71 1514.29 Z" fill="#000000" fill-rule="nonzero" fill-opacity="1"></path><polyline clip-path="url(#clip982)" style="stroke:#000000; stroke-linecap:round; stroke-linejoin:round; stroke-width:2; stroke-opacity:0.1; fill:none" points="169.121,1486.45 2352.76,1486.45 "></polyline>
<polyline clip-path="url(#clip982)" style="stroke:#000000; stroke-linecap:round; stroke-linejoin:round; stroke-width:2; stroke-opacity:0.1; fill:none" points="169.121,1198.61 2352.76,1198.61 "></polyline>
<polyline clip-path="url(#clip982)" style="stroke:#000000; stroke-linecap:round; stroke-linejoin:round; stroke-width:2; stroke-opacity:0.1; fill:none" points="169.121,910.766 2352.76,910.766 "></polyline>
<polyline clip-path="url(#clip982)" style="stroke:#000000; stroke-linecap:round; stroke-linejoin:round; stroke-width:2; stroke-opacity:0.1; fill:none" points="169.121,622.926 2352.76,622.926 "></polyline>
<polyline clip-path="url(#clip982)" style="stroke:#000000; stroke-linecap:round; stroke-linejoin:round; stroke-width:2; stroke-opacity:0.1; fill:none" points="169.121,335.085 2352.76,335.085 "></polyline>
<polyline clip-path="url(#clip982)" style="stroke:#000000; stroke-linecap:round; stroke-linejoin:round; stroke-width:2; stroke-opacity:0.1; fill:none" points="169.121,47.2441 2352.76,47.2441 "></polyline>
<polyline clip-path="url(#clip980)" style="stroke:#000000; stroke-linecap:round; stroke-linejoin:round; stroke-width:4; stroke-opacity:1; fill:none" points="169.121,1486.45 169.121,47.2441 "></polyline>
<polyline clip-path="url(#clip980)" style="stroke:#000000; stroke-linecap:round; stroke-linejoin:round; stroke-width:4; stroke-opacity:1; fill:none" points="169.121,1486.45 188.019,1486.45 "></polyline>
<polyline clip-path="url(#clip980)" style="stroke:#000000; stroke-linecap:round; stroke-linejoin:round; stroke-width:4; stroke-opacity:1; fill:none" points="169.121,1198.61 188.019,1198.61 "></polyline>
<polyline clip-path="url(#clip980)" style="stroke:#000000; stroke-linecap:round; stroke-linejoin:round; stroke-width:4; stroke-opacity:1; fill:none" points="169.121,910.766 188.019,910.766 "></polyline>
<polyline clip-path="url(#clip980)" style="stroke:#000000; stroke-linecap:round; stroke-linejoin:round; stroke-width:4; stroke-opacity:1; fill:none" points="169.121,622.926 188.019,622.926 "></polyline>
<polyline clip-path="url(#clip980)" style="stroke:#000000; stroke-linecap:round; stroke-linejoin:round; stroke-width:4; stroke-opacity:1; fill:none" points="169.121,335.085 188.019,335.085 "></polyline>
<polyline clip-path="url(#clip980)" style="stroke:#000000; stroke-linecap:round; stroke-linejoin:round; stroke-width:4; stroke-opacity:1; fill:none" points="169.121,47.2441 188.019,47.2441 "></polyline>
<path clip-path="url(#clip980)" d="M121.177 1472.25 Q117.566 1472.25 115.737 1475.81 Q113.932 1479.35 113.932 1486.48 Q113.932 1493.59 115.737 1497.15 Q117.566 1500.7 121.177 1500.7 Q124.811 1500.7 126.617 1497.15 Q128.445 1493.59 128.445 1486.48 Q128.445 1479.35 126.617 1475.81 Q124.811 1472.25 121.177 1472.25 M121.177 1468.54 Q126.987 1468.54 130.043 1473.15 Q133.121 1477.73 133.121 1486.48 Q133.121 1495.21 130.043 1499.82 Q126.987 1504.4 121.177 1504.4 Q115.367 1504.4 112.288 1499.82 Q109.233 1495.21 109.233 1486.48 Q109.233 1477.73 112.288 1473.15 Q115.367 1468.54 121.177 1468.54 Z" fill="#000000" fill-rule="nonzero" fill-opacity="1"></path><path clip-path="url(#clip980)" d="M86.0382 1211.95 L102.358 1211.95 L102.358 1215.89 L80.4133 1215.89 L80.4133 1211.95 Q83.0753 1209.2 87.6586 1204.57 Q92.2651 1199.91 93.4456 1198.57 Q95.691 1196.05 96.5706 1194.31 Q97.4734 1192.55 97.4734 1190.86 Q97.4734 1188.11 95.5289 1186.37 Q93.6076 1184.64 90.5058 1184.64 Q88.3067 1184.64 85.8531 1185.4 Q83.4225 1186.17 80.6447 1187.72 L80.6447 1182.99 Q83.4688 1181.86 85.9225 1181.28 Q88.3762 1180.7 90.4132 1180.7 Q95.7836 1180.7 98.978 1183.39 Q102.172 1186.07 102.172 1190.56 Q102.172 1192.69 101.362 1194.61 Q100.575 1196.51 98.4687 1199.1 Q97.89 1199.78 94.7882 1202.99 Q91.6864 1206.19 86.0382 1211.95 Z" fill="#000000" fill-rule="nonzero" fill-opacity="1"></path><path clip-path="url(#clip980)" d="M112.219 1181.33 L130.575 1181.33 L130.575 1185.26 L116.501 1185.26 L116.501 1193.73 Q117.52 1193.39 118.538 1193.23 Q119.557 1193.04 120.575 1193.04 Q126.362 1193.04 129.742 1196.21 Q133.121 1199.38 133.121 1204.8 Q133.121 1210.38 129.649 1213.48 Q126.177 1216.56 119.857 1216.56 Q117.682 1216.56 115.413 1216.19 Q113.168 1215.82 110.76 1215.08 L110.76 1210.38 Q112.844 1211.51 115.066 1212.07 Q117.288 1212.62 119.765 1212.62 Q123.77 1212.62 126.107 1210.52 Q128.445 1208.41 128.445 1204.8 Q128.445 1201.19 126.107 1199.08 Q123.77 1196.98 119.765 1196.98 Q117.89 1196.98 116.015 1197.39 Q114.163 1197.81 112.219 1198.69 L112.219 1181.33 Z" fill="#000000" fill-rule="nonzero" fill-opacity="1"></path><path clip-path="url(#clip980)" d="M81.0614 893.486 L99.4178 893.486 L99.4178 897.422 L85.3438 897.422 L85.3438 905.894 Q86.3623 905.546 87.3808 905.384 Q88.3993 905.199 89.4178 905.199 Q95.2049 905.199 98.5845 908.371 Q101.964 911.542 101.964 916.958 Q101.964 922.537 98.4919 925.639 Q95.0197 928.718 88.7003 928.718 Q86.5243 928.718 84.2558 928.347 Q82.0105 927.977 79.6031 927.236 L79.6031 922.537 Q81.6864 923.671 83.9086 924.227 Q86.1308 924.782 88.6077 924.782 Q92.6123 924.782 94.9502 922.676 Q97.2882 920.57 97.2882 916.958 Q97.2882 913.347 94.9502 911.241 Q92.6123 909.134 88.6077 909.134 Q86.7327 909.134 84.8577 909.551 Q83.0058 909.968 81.0614 910.847 L81.0614 893.486 Z" fill="#000000" fill-rule="nonzero" fill-opacity="1"></path><path clip-path="url(#clip980)" d="M121.177 896.565 Q117.566 896.565 115.737 900.13 Q113.932 903.671 113.932 910.801 Q113.932 917.908 115.737 921.472 Q117.566 925.014 121.177 925.014 Q124.811 925.014 126.617 921.472 Q128.445 917.908 128.445 910.801 Q128.445 903.671 126.617 900.13 Q124.811 896.565 121.177 896.565 M121.177 892.861 Q126.987 892.861 130.043 897.468 Q133.121 902.051 133.121 910.801 Q133.121 919.528 130.043 924.134 Q126.987 928.718 121.177 928.718 Q115.367 928.718 112.288 924.134 Q109.233 919.528 109.233 910.801 Q109.233 902.051 112.288 897.468 Q115.367 892.861 121.177 892.861 Z" fill="#000000" fill-rule="nonzero" fill-opacity="1"></path><path clip-path="url(#clip980)" d="M80.8299 605.646 L103.052 605.646 L103.052 607.636 L90.5058 640.206 L85.6216 640.206 L97.4271 609.581 L80.8299 609.581 L80.8299 605.646 Z" fill="#000000" fill-rule="nonzero" fill-opacity="1"></path><path clip-path="url(#clip980)" d="M112.219 605.646 L130.575 605.646 L130.575 609.581 L116.501 609.581 L116.501 618.053 Q117.52 617.706 118.538 617.544 Q119.557 617.359 120.575 617.359 Q126.362 617.359 129.742 620.53 Q133.121 623.701 133.121 629.118 Q133.121 634.696 129.649 637.798 Q126.177 640.877 119.857 640.877 Q117.682 640.877 115.413 640.507 Q113.168 640.136 110.76 639.395 L110.76 634.696 Q112.844 635.831 115.066 636.386 Q117.288 636.942 119.765 636.942 Q123.77 636.942 126.107 634.835 Q128.445 632.729 128.445 629.118 Q128.445 625.507 126.107 623.4 Q123.77 621.294 119.765 621.294 Q117.89 621.294 116.015 621.71 Q114.163 622.127 112.219 623.007 L112.219 605.646 Z" fill="#000000" fill-rule="nonzero" fill-opacity="1"></path><path clip-path="url(#clip980)" d="M51.6634 348.43 L59.3023 348.43 L59.3023 322.064 L50.9921 323.731 L50.9921 319.472 L59.256 317.805 L63.9319 317.805 L63.9319 348.43 L71.5707 348.43 L71.5707 352.365 L51.6634 352.365 L51.6634 348.43 Z" fill="#000000" fill-rule="nonzero" fill-opacity="1"></path><path clip-path="url(#clip980)" d="M91.0151 320.884 Q87.404 320.884 85.5753 324.448 Q83.7697 327.99 83.7697 335.12 Q83.7697 342.226 85.5753 345.791 Q87.404 349.332 91.0151 349.332 Q94.6493 349.332 96.4548 345.791 Q98.2835 342.226 98.2835 335.12 Q98.2835 327.99 96.4548 324.448 Q94.6493 320.884 91.0151 320.884 M91.0151 317.18 Q96.8252 317.18 99.8808 321.786 Q102.959 326.37 102.959 335.12 Q102.959 343.846 99.8808 348.453 Q96.8252 353.036 91.0151 353.036 Q85.2049 353.036 82.1262 348.453 Q79.0707 343.846 79.0707 335.12 Q79.0707 326.37 82.1262 321.786 Q85.2049 317.18 91.0151 317.18 Z" fill="#000000" fill-rule="nonzero" fill-opacity="1"></path><path clip-path="url(#clip980)" d="M121.177 320.884 Q117.566 320.884 115.737 324.448 Q113.932 327.99 113.932 335.12 Q113.932 342.226 115.737 345.791 Q117.566 349.332 121.177 349.332 Q124.811 349.332 126.617 345.791 Q128.445 342.226 128.445 335.12 Q128.445 327.99 126.617 324.448 Q124.811 320.884 121.177 320.884 M121.177 317.18 Q126.987 317.18 130.043 321.786 Q133.121 326.37 133.121 335.12 Q133.121 343.846 130.043 348.453 Q126.987 353.036 121.177 353.036 Q115.367 353.036 112.288 348.453 Q109.233 343.846 109.233 335.12 Q109.233 326.37 112.288 321.786 Q115.367 317.18 121.177 317.18 Z" fill="#000000" fill-rule="nonzero" fill-opacity="1"></path><path clip-path="url(#clip980)" d="M52.6588 60.5889 L60.2976 60.5889 L60.2976 34.2233 L51.9875 35.89 L51.9875 31.6308 L60.2513 29.9641 L64.9272 29.9641 L64.9272 60.5889 L72.5661 60.5889 L72.5661 64.5241 L52.6588 64.5241 L52.6588 60.5889 Z" fill="#000000" fill-rule="nonzero" fill-opacity="1"></path><path clip-path="url(#clip980)" d="M86.0382 60.5889 L102.358 60.5889 L102.358 64.5241 L80.4133 64.5241 L80.4133 60.5889 Q83.0753 57.8343 87.6586 53.2047 Q92.2651 48.552 93.4456 47.2094 Q95.691 44.6862 96.5706 42.9501 Q97.4734 41.1909 97.4734 39.5011 Q97.4734 36.7465 95.5289 35.0104 Q93.6076 33.2743 90.5058 33.2743 Q88.3067 33.2743 85.8531 34.0381 Q83.4225 34.802 80.6447 36.3529 L80.6447 31.6308 Q83.4688 30.4965 85.9225 29.9178 Q88.3762 29.3391 90.4132 29.3391 Q95.7836 29.3391 98.978 32.0243 Q102.172 34.7094 102.172 39.2002 Q102.172 41.3298 101.362 43.2511 Q100.575 45.1492 98.4687 47.7418 Q97.89 48.4131 94.7882 51.6306 Q91.6864 54.8251 86.0382 60.5889 Z" fill="#000000" fill-rule="nonzero" fill-opacity="1"></path><path clip-path="url(#clip980)" d="M112.219 29.9641 L130.575 29.9641 L130.575 33.8993 L116.501 33.8993 L116.501 42.3714 Q117.52 42.0242 118.538 41.8622 Q119.557 41.677 120.575 41.677 Q126.362 41.677 129.742 44.8483 Q133.121 48.0196 133.121 53.4362 Q133.121 59.0149 129.649 62.1167 Q126.177 65.1954 119.857 65.1954 Q117.682 65.1954 115.413 64.825 Q113.168 64.4547 110.76 63.7139 L110.76 59.0149 Q112.844 60.1491 115.066 60.7047 Q117.288 61.2602 119.765 61.2602 Q123.77 61.2602 126.107 59.1538 Q128.445 57.0473 128.445 53.4362 Q128.445 49.8251 126.107 47.7186 Q123.77 45.6122 119.765 45.6122 Q117.89 45.6122 116.015 46.0288 Q114.163 46.4455 112.219 47.3251 L112.219 29.9641 Z" fill="#000000" fill-rule="nonzero" fill-opacity="1"></path><path clip-path="url(#clip982)" d="M289.225 1463.42 L289.225 1486.45 L410.689 1486.45 L410.689 1463.42 L289.225 1463.42 L289.225 1463.42  Z" fill="#6a5acd" fill-rule="evenodd" fill-opacity="1"></path>
<polyline clip-path="url(#clip982)" style="stroke:#000000; stroke-linecap:round; stroke-linejoin:round; stroke-width:4; stroke-opacity:1; fill:none" points="289.225,1463.42 289.225,1486.45 410.689,1486.45 410.689,1463.42 289.225,1463.42 "></polyline>
<path clip-path="url(#clip982)" d="M410.689 1486.45 L410.689 1486.45 L532.153 1486.45 L532.153 1486.45 L410.689 1486.45 L410.689 1486.45  Z" fill="#6a5acd" fill-rule="evenodd" fill-opacity="1"></path>
<polyline clip-path="url(#clip982)" style="stroke:#000000; stroke-linecap:round; stroke-linejoin:round; stroke-width:4; stroke-opacity:1; fill:none" points="410.689,1486.45 410.689,1486.45 532.153,1486.45 410.689,1486.45 "></polyline>
<path clip-path="url(#clip982)" d="M532.153 1394.34 L532.153 1486.45 L653.618 1486.45 L653.618 1394.34 L532.153 1394.34 L532.153 1394.34  Z" fill="#6a5acd" fill-rule="evenodd" fill-opacity="1"></path>
<polyline clip-path="url(#clip982)" style="stroke:#000000; stroke-linecap:round; stroke-linejoin:round; stroke-width:4; stroke-opacity:1; fill:none" points="532.153,1394.34 532.153,1486.45 653.618,1486.45 653.618,1394.34 532.153,1394.34 "></polyline>
<path clip-path="url(#clip982)" d="M653.618 726.548 L653.618 1486.45 L775.082 1486.45 L775.082 726.548 L653.618 726.548 L653.618 726.548  Z" fill="#6a5acd" fill-rule="evenodd" fill-opacity="1"></path>
<polyline clip-path="url(#clip982)" style="stroke:#000000; stroke-linecap:round; stroke-linejoin:round; stroke-width:4; stroke-opacity:1; fill:none" points="653.618,726.548 653.618,1486.45 775.082,1486.45 775.082,726.548 653.618,726.548 "></polyline>
<path clip-path="url(#clip982)" d="M775.082 358.112 L775.082 1486.45 L896.546 1486.45 L896.546 358.112 L775.082 358.112 L775.082 358.112  Z" fill="#6a5acd" fill-rule="evenodd" fill-opacity="1"></path>
<polyline clip-path="url(#clip982)" style="stroke:#000000; stroke-linecap:round; stroke-linejoin:round; stroke-width:4; stroke-opacity:1; fill:none" points="775.082,358.112 775.082,1486.45 896.546,1486.45 896.546,358.112 775.082,358.112 "></polyline>
<path clip-path="url(#clip982)" d="M896.546 173.894 L896.546 1486.45 L1018.01 1486.45 L1018.01 173.894 L896.546 173.894 L896.546 173.894  Z" fill="#6a5acd" fill-rule="evenodd" fill-opacity="1"></path>
<polyline clip-path="url(#clip982)" style="stroke:#000000; stroke-linecap:round; stroke-linejoin:round; stroke-width:4; stroke-opacity:1; fill:none" points="896.546,173.894 896.546,1486.45 1018.01,1486.45 1018.01,173.894 896.546,173.894 "></polyline>
<path clip-path="url(#clip982)" d="M1018.01 208.435 L1018.01 1486.45 L1139.47 1486.45 L1139.47 208.435 L1018.01 208.435 L1018.01 208.435  Z" fill="#6a5acd" fill-rule="evenodd" fill-opacity="1"></path>
<polyline clip-path="url(#clip982)" style="stroke:#000000; stroke-linecap:round; stroke-linejoin:round; stroke-width:4; stroke-opacity:1; fill:none" points="1018.01,208.435 1018.01,1486.45 1139.47,1486.45 1139.47,208.435 1018.01,208.435 "></polyline>
<path clip-path="url(#clip982)" d="M1139.47 93.2986 L1139.47 1486.45 L1260.94 1486.45 L1260.94 93.2986 L1139.47 93.2986 L1139.47 93.2986  Z" fill="#6a5acd" fill-rule="evenodd" fill-opacity="1"></path>
<polyline clip-path="url(#clip982)" style="stroke:#000000; stroke-linecap:round; stroke-linejoin:round; stroke-width:4; stroke-opacity:1; fill:none" points="1139.47,93.2986 1139.47,1486.45 1260.94,1486.45 1260.94,93.2986 1139.47,93.2986 "></polyline>
<path clip-path="url(#clip982)" d="M1260.94 657.466 L1260.94 1486.45 L1382.4 1486.45 L1382.4 657.466 L1260.94 657.466 L1260.94 657.466  Z" fill="#6a5acd" fill-rule="evenodd" fill-opacity="1"></path>
<polyline clip-path="url(#clip982)" style="stroke:#000000; stroke-linecap:round; stroke-linejoin:round; stroke-width:4; stroke-opacity:1; fill:none" points="1260.94,657.466 1260.94,1486.45 1382.4,1486.45 1382.4,657.466 1260.94,657.466 "></polyline>
<path clip-path="url(#clip982)" d="M1382.4 1025.9 L1382.4 1486.45 L1503.87 1486.45 L1503.87 1025.9 L1382.4 1025.9 L1382.4 1025.9  Z" fill="#6a5acd" fill-rule="evenodd" fill-opacity="1"></path>
<polyline clip-path="url(#clip982)" style="stroke:#000000; stroke-linecap:round; stroke-linejoin:round; stroke-width:4; stroke-opacity:1; fill:none" points="1382.4,1025.9 1382.4,1486.45 1503.87,1486.45 1503.87,1025.9 1382.4,1025.9 "></polyline>
<path clip-path="url(#clip982)" d="M1503.87 991.362 L1503.87 1486.45 L1625.33 1486.45 L1625.33 991.362 L1503.87 991.362 L1503.87 991.362  Z" fill="#6a5acd" fill-rule="evenodd" fill-opacity="1"></path>
<polyline clip-path="url(#clip982)" style="stroke:#000000; stroke-linecap:round; stroke-linejoin:round; stroke-width:4; stroke-opacity:1; fill:none" points="1503.87,991.362 1503.87,1486.45 1625.33,1486.45 1625.33,991.362 1503.87,991.362 "></polyline>
<path clip-path="url(#clip982)" d="M1625.33 1267.69 L1625.33 1486.45 L1746.8 1486.45 L1746.8 1267.69 L1625.33 1267.69 L1625.33 1267.69  Z" fill="#6a5acd" fill-rule="evenodd" fill-opacity="1"></path>
<polyline clip-path="url(#clip982)" style="stroke:#000000; stroke-linecap:round; stroke-linejoin:round; stroke-width:4; stroke-opacity:1; fill:none" points="1625.33,1267.69 1625.33,1486.45 1746.8,1486.45 1746.8,1267.69 1625.33,1267.69 "></polyline>
<path clip-path="url(#clip982)" d="M1746.8 1371.31 L1746.8 1486.45 L1868.26 1486.45 L1868.26 1371.31 L1746.8 1371.31 L1746.8 1371.31  Z" fill="#6a5acd" fill-rule="evenodd" fill-opacity="1"></path>
<polyline clip-path="url(#clip982)" style="stroke:#000000; stroke-linecap:round; stroke-linejoin:round; stroke-width:4; stroke-opacity:1; fill:none" points="1746.8,1371.31 1746.8,1486.45 1868.26,1486.45 1868.26,1371.31 1746.8,1371.31 "></polyline>
<path clip-path="url(#clip982)" d="M1868.26 1313.74 L1868.26 1486.45 L1989.72 1486.45 L1989.72 1313.74 L1868.26 1313.74 L1868.26 1313.74  Z" fill="#6a5acd" fill-rule="evenodd" fill-opacity="1"></path>
<polyline clip-path="url(#clip982)" style="stroke:#000000; stroke-linecap:round; stroke-linejoin:round; stroke-width:4; stroke-opacity:1; fill:none" points="1868.26,1313.74 1868.26,1486.45 1989.72,1486.45 1989.72,1313.74 1868.26,1313.74 "></polyline>
<path clip-path="url(#clip982)" d="M1989.72 1417.37 L1989.72 1486.45 L2111.19 1486.45 L2111.19 1417.37 L1989.72 1417.37 L1989.72 1417.37  Z" fill="#6a5acd" fill-rule="evenodd" fill-opacity="1"></path>
<polyline clip-path="url(#clip982)" style="stroke:#000000; stroke-linecap:round; stroke-linejoin:round; stroke-width:4; stroke-opacity:1; fill:none" points="1989.72,1417.37 1989.72,1486.45 2111.19,1486.45 2111.19,1417.37 1989.72,1417.37 "></polyline>
<path clip-path="url(#clip982)" d="M2111.19 1451.91 L2111.19 1486.45 L2232.65 1486.45 L2232.65 1451.91 L2111.19 1451.91 L2111.19 1451.91  Z" fill="#6a5acd" fill-rule="evenodd" fill-opacity="1"></path>
<polyline clip-path="url(#clip982)" style="stroke:#000000; stroke-linecap:round; stroke-linejoin:round; stroke-width:4; stroke-opacity:1; fill:none" points="2111.19,1451.91 2111.19,1486.45 2232.65,1486.45 2232.65,1451.91 2111.19,1451.91 "></polyline>
<circle clip-path="url(#clip982)" style="fill:#6a5acd; stroke:none; fill-opacity:0" cx="349.957" cy="1463.42" r="2"></circle>
<circle clip-path="url(#clip982)" style="fill:#6a5acd; stroke:none; fill-opacity:0" cx="471.421" cy="1486.45" r="2"></circle>
<circle clip-path="url(#clip982)" style="fill:#6a5acd; stroke:none; fill-opacity:0" cx="592.886" cy="1394.34" r="2"></circle>
<circle clip-path="url(#clip982)" style="fill:#6a5acd; stroke:none; fill-opacity:0" cx="714.35" cy="726.548" r="2"></circle>
<circle clip-path="url(#clip982)" style="fill:#6a5acd; stroke:none; fill-opacity:0" cx="835.814" cy="358.112" r="2"></circle>
<circle clip-path="url(#clip982)" style="fill:#6a5acd; stroke:none; fill-opacity:0" cx="957.278" cy="173.894" r="2"></circle>
<circle clip-path="url(#clip982)" style="fill:#6a5acd; stroke:none; fill-opacity:0" cx="1078.74" cy="208.435" r="2"></circle>
<circle clip-path="url(#clip982)" style="fill:#6a5acd; stroke:none; fill-opacity:0" cx="1200.21" cy="93.2986" r="2"></circle>
<circle clip-path="url(#clip982)" style="fill:#6a5acd; stroke:none; fill-opacity:0" cx="1321.67" cy="657.466" r="2"></circle>
<circle clip-path="url(#clip982)" style="fill:#6a5acd; stroke:none; fill-opacity:0" cx="1443.13" cy="1025.9" r="2"></circle>
<circle clip-path="url(#clip982)" style="fill:#6a5acd; stroke:none; fill-opacity:0" cx="1564.6" cy="991.362" r="2"></circle>
<circle clip-path="url(#clip982)" style="fill:#6a5acd; stroke:none; fill-opacity:0" cx="1686.06" cy="1267.69" r="2"></circle>
<circle clip-path="url(#clip982)" style="fill:#6a5acd; stroke:none; fill-opacity:0" cx="1807.53" cy="1371.31" r="2"></circle>
<circle clip-path="url(#clip982)" style="fill:#6a5acd; stroke:none; fill-opacity:0" cx="1928.99" cy="1313.74" r="2"></circle>
<circle clip-path="url(#clip982)" style="fill:#6a5acd; stroke:none; fill-opacity:0" cx="2050.46" cy="1417.37" r="2"></circle>
<circle clip-path="url(#clip982)" style="fill:#6a5acd; stroke:none; fill-opacity:0" cx="2171.92" cy="1451.91" r="2"></circle>
<polyline clip-path="url(#clip982)" style="stroke:#ff0000; stroke-linecap:round; stroke-linejoin:round; stroke-width:8; stroke-opacity:1; fill:none" points="1231.04,1486.45 1231.04,47.2441 "></polyline>
<polyline clip-path="url(#clip982)" style="stroke:#0000ff; stroke-linecap:round; stroke-linejoin:round; stroke-width:8; stroke-opacity:1; fill:none" points="949.646,1486.45 949.646,47.2441 "></polyline>
<path clip-path="url(#clip980)" d="M1936.1 198.898 L2279.97 198.898 L2279.97 95.2176 L1936.1 95.2176  Z" fill="#ffffff" fill-rule="evenodd" fill-opacity="1"></path>
<polyline clip-path="url(#clip980)" style="stroke:#000000; stroke-linecap:round; stroke-linejoin:round; stroke-width:4; stroke-opacity:1; fill:none" points="1936.1,198.898 2279.97,198.898 2279.97,95.2176 1936.1,95.2176 1936.1,198.898 "></polyline>
<path clip-path="url(#clip980)" d="M1960.36 167.794 L2105.93 167.794 L2105.93 126.322 L1960.36 126.322 L1960.36 167.794  Z" fill="#6a5acd" fill-rule="evenodd" fill-opacity="1"></path>
<polyline clip-path="url(#clip980)" style="stroke:#000000; stroke-linecap:round; stroke-linejoin:round; stroke-width:4; stroke-opacity:1; fill:none" points="1960.36,167.794 2105.93,167.794 2105.93,126.322 1960.36,126.322 1960.36,167.794 "></polyline>
<path clip-path="url(#clip980)" d="M2149.11 142.347 L2149.11 128.319 L2153.37 128.319 L2153.37 164.338 L2149.11 164.338 L2149.11 160.449 Q2147.77 162.763 2145.71 163.898 Q2143.67 165.009 2140.8 165.009 Q2136.1 165.009 2133.14 161.259 Q2130.2 157.509 2130.2 151.398 Q2130.2 145.287 2133.14 141.537 Q2136.1 137.787 2140.8 137.787 Q2143.67 137.787 2145.71 138.921 Q2147.77 140.032 2149.11 142.347 M2134.6 151.398 Q2134.6 156.097 2136.52 158.782 Q2138.46 161.444 2141.84 161.444 Q2145.22 161.444 2147.16 158.782 Q2149.11 156.097 2149.11 151.398 Q2149.11 146.699 2147.16 144.037 Q2145.22 141.352 2141.84 141.352 Q2138.46 141.352 2136.52 144.037 Q2134.6 146.699 2134.6 151.398 Z" fill="#000000" fill-rule="nonzero" fill-opacity="1"></path><path clip-path="url(#clip980)" d="M2162.14 128.319 L2166.4 128.319 L2166.4 164.338 L2162.14 164.338 L2162.14 128.319 Z" fill="#000000" fill-rule="nonzero" fill-opacity="1"></path><path clip-path="url(#clip980)" d="M2196.86 148.689 L2196.86 164.338 L2192.6 164.338 L2192.6 148.828 Q2192.6 145.148 2191.17 143.319 Q2189.73 141.49 2186.86 141.49 Q2183.41 141.49 2181.42 143.69 Q2179.43 145.889 2179.43 149.685 L2179.43 164.338 L2175.15 164.338 L2175.15 138.412 L2179.43 138.412 L2179.43 142.44 Q2180.96 140.102 2183.02 138.944 Q2185.1 137.787 2187.81 137.787 Q2192.28 137.787 2194.57 140.565 Q2196.86 143.319 2196.86 148.689 Z" fill="#000000" fill-rule="nonzero" fill-opacity="1"></path><path clip-path="url(#clip980)" d="M2214.46 164.338 L2201.26 129.778 L2206.15 129.778 L2217.09 158.875 L2228.07 129.778 L2232.93 129.778 L2219.76 164.338 L2214.46 164.338 Z" fill="#000000" fill-rule="nonzero" fill-opacity="1"></path><path clip-path="url(#clip980)" d="M2254.32 139.176 L2254.32 143.203 Q2252.51 142.277 2250.57 141.815 Q2248.62 141.352 2246.54 141.352 Q2243.37 141.352 2241.77 142.324 Q2240.2 143.296 2240.2 145.24 Q2240.2 146.722 2241.33 147.578 Q2242.46 148.412 2245.89 149.176 L2247.35 149.5 Q2251.89 150.472 2253.78 152.254 Q2255.71 154.014 2255.71 157.185 Q2255.71 160.796 2252.84 162.902 Q2249.99 165.009 2244.99 165.009 Q2242.9 165.009 2240.64 164.592 Q2238.39 164.199 2235.89 163.388 L2235.89 158.99 Q2238.25 160.217 2240.54 160.842 Q2242.84 161.444 2245.08 161.444 Q2248.09 161.444 2249.71 160.426 Q2251.33 159.384 2251.33 157.509 Q2251.33 155.773 2250.15 154.847 Q2248.99 153.921 2245.03 153.064 L2243.55 152.717 Q2239.59 151.884 2237.84 150.171 Q2236.08 148.435 2236.08 145.426 Q2236.08 141.768 2238.67 139.778 Q2241.26 137.787 2246.03 137.787 Q2248.39 137.787 2250.47 138.134 Q2252.56 138.481 2254.32 139.176 Z" fill="#000000" fill-rule="nonzero" fill-opacity="1"></path></svg>